<svg xmlns="http://www.w3.org/2000/svg" width="1800" height="246" fill="none"><g fill="#e8e8e8" clip-path="url(#a)"><path d="M0 20.892h82.683V243.27h18.768V20.892h82.683V2.567H0zm806.03 186.436L656.421 2.568H451.926v18.501h188.649V243.27h18.679V38.066L809.305 243.27h15.315V2.567h-18.59zM960.774 2.567h-72.503V243.27h72.503c70.736 0 121.986-50.726 121.986-120.573S1031.51 2.567 960.774 2.567m-.266 222.378h-53.469V20.892h53.469c59.842 0 103.222 42.758 103.222 101.717s-43.47 102.247-103.222 102.247zm514.862-119.69h-128.62V2.654h-25.85v240.525h25.85V130.84h128.62v112.339h25.94V2.654h-25.94zM1580.9 2.654h-25.94v240.525h25.94zm140.75 0h-95.96v240.525h25.94v-89.677h70.02c44.71 0 78.35-32.489 78.35-75.513 0-43.023-33.64-75.335-78.35-75.335m-.44 125.176h-69.67V28.326h69.67c30.01 0 52.67 21.335 52.67 49.664 0 28.328-22.66 49.928-52.67 49.928z"/><path d="M603.481 113.666H423.95v18.502h179.531zm601.629-4.069c-36.3-7.878-60.82-16.377-60.82-42.846 0-25.053 23.46-43.467 56.21-43.467 29.66 0 51.44 17.706 53.91 41.962h25.85c-2.48-39.217-34.96-65.332-79.58-65.332s-80.03 26.292-80.03 67.102c0 48.158 43.73 57.719 78.88 65.333 32.84 7.259 58.69 13.013 58.69 42.404 0 27.088-22.48 47.449-55.95 47.449-36.82 0-60.55-22.22-60.55-53.027v-.265h-26.03v.265c0 45.768 34.88 76.487 86.76 76.487 48.25 0 81.97-29.214 81.97-71.087 0-48.335-50.01-58.604-79.31-65.155z"/><path d="M340.206 140.048c33.197-7.347 55.771-33.905 55.771-67.457 0-40.633-31.426-70.024-74.716-70.024h-97.467V243.27h18.856V20.98h78.257c32.401 0 55.86 21.513 56.126 51.169v.354c-.177 29.656-23.725 51.168-56.126 51.168h-5.311v14.341l76.929 105.169h183.16v-18.502H402.263l-61.969-84.719z"/></g><defs><clipPath id="a"><path fill="#e8e8e8" d="M0 0h1800v245.837H0z"/></clipPath></defs></svg>